<svg id="Layer_1" data-name="Layer 1" xmlns="http://www.w3.org/2000/svg" viewBox="0 0 1821.5 271.92"><defs><style>.cls-1{fill:#6a6766;}.cls-2{font-size:182.94px;font-family:Boiling-BlackDemo, Boiling Demo;font-weight:800;}.cls-13,.cls-2{fill:#ed1c24;}.cls-3{fill:#231f20;}.cls-4{fill:#010101;}.cls-5{fill:#030303;}.cls-6{fill:#040404;}.cls-7{fill:#020202;}.cls-8{fill:#060606;}.cls-9{fill:#0b0a0a;}.cls-10{fill:#090808;}.cls-11{fill:#010201;}.cls-12{fill:#0b0b0b;}</style></defs><path class="cls-1" d="M823.11,536.66l-2.54-.13a4,4,0,0,1,3.2-.64c.53.07.45.48.06.71C823.63,536.71,823.35,536.64,823.11,536.66Z" transform="translate(-51.51 -361)"/><text class="cls-2" transform="translate(469.23 234.05) scale(0.95 1)">UR DEEAM<tspan class="cls-3" x="836.2" y="0" xml:space="preserve"> HOUSE</tspan></text><path class="cls-1" d="M515,562.41l-2.68-.13a4.48,4.48,0,0,1,3.39-.64c.55.07.47.48,0,.71C515.56,562.46,515.26,562.39,515,562.41Z" transform="translate(-51.51 -361)"/><path class="cls-4" d="M503.47,588.59c-13.21,8.2-27.73,13-42.92,15.55-24.48,4-49,2.78-73.48-.66-29.68-4.17-58.84-11.16-88.28-16.62-32.77-6.09-65.8-9.38-99.1-6.93-30,2.21-59.22,8.57-86.46,22.06a9.51,9.51,0,0,1-7.4.41c-17.13-4.76-34.73-6.48-52.38-7.85a19.41,19.41,0,0,1-1.94-.41,256.24,256.24,0,0,1,47.72-29.36,262.32,262.32,0,0,1,82.44-24.19c36-4.4,70.73.3,104.75,12.94,24.92,9.26,49.63,19.34,75.63,25.46A393.66,393.66,0,0,0,422,588.7a450.6,450.6,0,0,0,61.59.81c5.53-.33,11.05-.72,16.58-1.08A3.25,3.25,0,0,1,503.47,588.59Z" transform="translate(-51.51 -361)"/><path class="cls-4" d="M489.92,476.25H420c-2.66,0-4.47-1.77-6.35-3.24q-31.69-24.9-63.32-49.86c-12.66-10-25.37-19.91-37.94-30-2.65-2.12-4.66-2.32-7.7-.5-14.18,8.44-29.2,15.39-43.77,24.54l75.44,45.43c-7.2,1.06-13.16,1.93-19.11,2.82a37.86,37.86,0,0,0-5.76,1c-7.43,2.3-13.51-.75-19.63-4.41-30.3-18.13-60.7-36.11-91-54.31-3.33-2-5.71-2.18-9.19-.19-32.77,18.71-65.66,37.2-98.5,55.78a8,8,0,0,1-4,1.38c-8,0-16,0-24.09,0,.36-2,2.06-2.21,3.15-2.83q61.16-35,122.39-69.84a10,10,0,0,1,8.24-1.22c9,2.43,18.29,4.08,27.38,6.33,7,1.74,13.09,5.61,18.88,9.75,2.94,2.1,5.11,2.17,8.26.36,16.28-9.36,32.74-18.43,49.1-27.67a19,19,0,0,1,11.47-2.64c11.38.87,22.81,1,34.23,1.25a13.78,13.78,0,0,1,7.74,2.2c26.87,17.71,52.77,36.81,78.81,55.69C452.74,449.12,470.71,462.26,489.92,476.25Z" transform="translate(-51.51 -361)"/><path class="cls-5" d="M111.18,537.67c-19.32,8-38.86,15.46-57.12,25.92,4.13-5.34,9.42-9.29,14.64-13.23,34.61-26.15,73.38-43.13,115.62-52.64,30.23-6.8,60.8-8.91,91.62-7.67,23.23.94,46.12,4.66,68.76,10,26.1,6.13,52,13.35,78.42,17.92,28.82,5,57.77,7.3,86.73.52a23.86,23.86,0,0,1,4.36,0c-5.73,5.3-12,7.82-18.42,10.17-5.13,2.14-10.66,2.25-16,2.89-15.37,1.83-30.77,1.72-46.23.73-12.48-.8-24.57-3.4-36.73-6-14.12-3-27.84-7.63-42-10.42-10.75-2.13-21.2-5.77-32.22-6.48-5.51-2.65-11.61-2-17.41-3-4.22-.76-8.56-1.53-12.94-1.17-15.7-1.59-31.4-2.6-47.21-1.46-11.63.84-23.33,1-34.83,3-23.43,4.05-46.49,9.6-68.77,18a116.08,116.08,0,0,0-12.16,4.9,32.46,32.46,0,0,0-5,2c-.38.23-.78.43-1.17.62C119.21,534.1,115.2,535.9,111.18,537.67Z" transform="translate(-51.51 -361)"/><path class="cls-6" d="M106.17,492.9c0-6,.13-12.08-.07-18.11-.09-2.83.87-3.5,3.6-3.55,12.11-.22,12.11-.31,12.11,11.53,0,7.34-.06,14.69,0,22,0,2.53-.28,4.23-3.22,5-4.13,1.1-8.56,5.94-11.73,3.94-2.51-1.58-.55-7.85-.71-12C106.09,498.77,106.17,495.83,106.17,492.9Z" transform="translate(-51.51 -361)"/><path class="cls-4" d="M386.24,502.57c-5.39-1.35-10.19-2.74-15.08-3.67-2.16-.42-2.61-1.37-2.6-3.24,0-9.12.09-18.23-.07-27.35,0-2.47.88-3.18,3.1-2.85a3.84,3.84,0,0,0,.48,0c4.53.09,10.43-1.52,13.22.73,2.95,2.37.82,8.51.91,13C386.36,486.83,386.24,494.48,386.24,502.57Z" transform="translate(-51.51 -361)"/><path class="cls-4" d="M362.7,496.69c-5.2-1-9.77-2.06-14.4-2.76-2.38-.35-3.36-1.22-3.31-3.72.12-7.33.1-14.66,0-22,0-2.06.47-3.12,2.69-2.76a4,4,0,0,0,.49,0c4.68.12,10.69-1.46,13.67.85,2.82,2.18.72,8.53.82,13C362.8,485,362.7,490.73,362.7,496.69Z" transform="translate(-51.51 -361)"/><path class="cls-7" d="M126.5,506.17c0-10.6.09-21.17-.06-31.73,0-2.66.82-3.34,3.32-3.17,3.87.26,8.71-1.13,11.36.72s.44,7,1,10.64a27.8,27.8,0,0,1,.07,4.38C142.22,502.42,142.22,502.42,126.5,506.17Z" transform="translate(-51.51 -361)"/><path class="cls-8" d="M216.82,466.44c-10.71.09-10.46.08-10.81-10.64-.15-4.42,1.13-5.92,5.4-5.26,1.59.25,3.26-.06,4.89.06,3.52.27,8.9-1.63,10.14.83,1.79,3.53.68,8.53.78,12.91,0,1.75-1,2.14-2.56,2.11C222.05,466.4,219.44,466.44,216.82,466.44Z" transform="translate(-51.51 -361)"/><path class="cls-4" d="M192.06,450.58c10,0,9.7,0,10.07,10.14.17,4.57-.79,6.43-5.69,5.81a52.61,52.61,0,0,0-11.22,0c-3.41.3-4.31-1.1-3.85-4.11a6.27,6.27,0,0,0,0-1C181.37,450.59,181.37,450.59,192.06,450.58Z" transform="translate(-51.51 -361)"/><path class="cls-9" d="M235.56,379.88,259,362.27c1.28-1,2.28-2,4.11-.53,7.7,6.18,15.53,12.2,23.61,18.51-3,1.37-5,.4-6.93-1.13-5.25-4.09-10.61-8.06-15.8-12.22-1.84-1.47-3.12-1.56-5.05,0-4.68,3.76-9.72,7.07-14.36,10.87A9.56,9.56,0,0,1,235.56,379.88Z" transform="translate(-51.51 -361)"/><path class="cls-10" d="M216.58,479.21a32.78,32.78,0,0,0-5.34.05c-4.57.74-5.56-1.38-5.19-5.46.19-2.24,1.09-2.68,3-2.66,5,.05,10.05.2,15.06,0,3.78-.17,3,2.28,3.19,4.48.21,2.6-.47,3.95-3.42,3.68C221.45,479,219,479.21,216.58,479.21Z" transform="translate(-51.51 -361)"/><path class="cls-11" d="M191.42,479.21a38.44,38.44,0,0,0-5.37,0c-3.82.56-5-.85-4.8-4.7.16-2.81.94-3.57,3.64-3.44a100.09,100.09,0,0,0,13.19,0c3.89-.33,4,1.58,4,4.57s-.82,4.05-3.87,3.62A50.15,50.15,0,0,0,191.42,479.21Z" transform="translate(-51.51 -361)"/><path class="cls-12" d="M257.55,479.48c9.51-1.06,19-2.23,28.54-3.07,1.82-.16,5.15-2.12,5.16,2.55,0,2.55-.64,3.34-3.23,3.24C277.81,481.8,267.62,481.37,257.55,479.48Z" transform="translate(-51.51 -361)"/><path class="cls-13" d="M105.61,541S170.55,516.83,222.68,525s74.54,21.25,74.54,21.25,93.75,40.8,158.23,33.07c49.85-7.32,45.43-44,49.85-54.74,0,0-42.53,12.17-84,5.41-37-6-99.08-27.32-148.77-27.2a326.88,326.88,0,0,0-80.4,6.78A332,332,0,0,0,105.61,541Z" transform="translate(-51.51 -361)"/><polygon class="cls-13" points="202.01 33.75 202.01 17.4 217.26 17.03 217.26 25.57 202.01 33.75"/></svg>